<?xml version="1.0" standalone="no"?>
<!DOCTYPE svg PUBLIC "-//W3C//DTD SVG 20010904//EN"
 "http://www.w3.org/TR/2001/REC-SVG-20010904/DTD/svg10.dtd">
<svg version="1.0" xmlns="http://www.w3.org/2000/svg"
 width="84.000000pt" height="84.000000pt" viewBox="0 0 84.000000 84.000000"
 preserveAspectRatio="xMidYMid meet">

<g transform="translate(0.000000,84.000000) scale(0.100000,-0.100000)"
fill="blue" stroke="none">
<path d="M592 756 c-25 -55 -8 -95 33 -80 21 8 19 57 -3 84 l-18 22 -12 -26z"/>
<path d="M443 730 c7 -52 27 -75 56 -65 43 13 22 64 -38 95 -24 12 -24 12 -18
-30z"/>
<path d="M706 679 c-29 -23 -33 -41 -13 -58 20 -16 45 7 53 47 8 38 -2 40 -40
11z"/>
<path d="M310 654 c0 -15 43 -75 61 -84 22 -12 53 0 63 25 10 28 -37 65 -84
65 -22 0 -40 -3 -40 -6z"/>
<path d="M543 643 c-29 -5 -28 -9 0 -47 52 -69 88 -146 70 -146 -5 0 -18 19
-30 43 -11 23 -35 62 -53 86 l-33 45 -23 -28 c-30 -34 -32 -98 -6 -139 11 -15
46 -47 79 -71 33 -24 72 -59 86 -77 l25 -33 16 38 c45 109 45 222 -2 277 -24
29 -80 61 -99 58 -4 -1 -18 -4 -30 -6z"/>
<path d="M752 580 c-26 -24 -28 -38 -7 -46 21 -9 45 14 45 42 0 29 -10 30 -38
4z"/>
<path d="M254 436 c-19 -15 -19 -15 4 -38 18 -18 24 -20 31 -9 12 19 45 6 80
-34 34 -39 55 -102 45 -140 -3 -14 -2 -25 4 -25 26 0 23 87 -4 141 -17 34 -68
77 -100 85 -16 4 -23 12 -20 20 7 18 -15 18 -40 0z"/>
<path d="M154 401 c-60 -36 -101 -125 -88 -190 5 -23 3 -31 -7 -31 -9 -1 -5
-8 10 -20 31 -26 38 -25 44 7 6 32 -2 51 -13 33 -13 -22 -21 39 -10 80 13 49
54 99 97 116 18 8 33 16 33 19 0 12 -37 3 -66 -14z"/>
<path d="M512 292 c-46 -107 -20 -212 53 -212 l34 0 -24 42 c-29 55 -41 92
-26 87 6 -2 23 -28 38 -58 15 -30 33 -54 38 -54 19 0 38 48 31 76 -3 15 -25
48 -49 75 -23 26 -49 58 -58 71 l-15 24 -22 -51z"/>
<path d="M230 271 c-37 -35 -51 -54 -46 -66 3 -9 6 -21 6 -26 0 -20 22 -7 49
31 16 23 32 37 35 32 3 -5 -8 -28 -24 -51 l-30 -41 30 0 c40 0 62 35 62 100
-1 86 -10 88 -82 21z"/>
<path d="M375 158 c-29 -16 -31 -18 -17 -27 10 -6 6 -13 -15 -27 -43 -29 -147
-27 -192 5 -21 15 -32 19 -29 10 2 -8 19 -24 38 -36 48 -33 129 -32 187 3 24
14 48 22 53 19 6 -4 10 9 10 29 0 39 -4 41 -35 24z"/>
</g>
</svg>
